<svg xmlns="http://www.w3.org/2000/svg" viewBox="0 0 468.21 343.88"><defs><style>.cls-1,.cls-2,.cls-3{fill:none;}.cls-1{stroke:#fff;stroke-width:33.76px;}.cls-1,.cls-2{stroke-linecap:round;stroke-linejoin:round;}.cls-2{stroke:#fff;stroke-width:0;}.cls-3{stroke:#231f20;stroke-miterlimit:10;}</style></defs><title>Asset 1</title><g id="Layer_2" data-name="Layer 2"><g id="Layer_1-2" data-name="Layer 1"><path class="cls-1" d="M23.88,129.71S149.73,139.79,201.13,90.4c20.5-19.7,20.73-66.52-34.25-66.52h0C102.34,23.92,55,161,55,161S-13.55,357.5,103.46,313.61c.43-.17,1,0,1.37-.25,94.28-45.57,141.65-231,232.33-226h.07c49.76,5,56.4,92.73,27.18,110.87-28.26,17.54-86.68-10.23-61.48-38.38,28.22-37.22,116.91-24.11,116.91-24.11"/><path class="cls-2" d="M40.63,129.71S166.48,139.79,217.88,90.4c20.5-19.7,20.74-66.52-34.24-66.52h0C119.1,23.92,71.74,161,71.74,161S3.2,357.5,120.22,313.61c.43-.17,1,0,1.37-.25,94.28-45.57,141.65-231,232.32-226H354c49.76,5,56.39,92.73,27.17,110.87-28.26,17.54-86.68-10.23-61.48-38.38,28.22-37.22,116.92-24.11,116.92-24.11"/><line class="cls-3" x1="468.21" y1="225.01" x2="466.23" y2="225.01"/></g></g></svg>