<svg xmlns="http://www.w3.org/2000/svg" viewBox="0 0 572.55 127.06"><defs>
<style>.cls-1,.cls-2,.cls-3{fill:none;stroke-linecap:round;stroke-linejoin:round;}.cls-1,.cls-3{stroke:#fff;}.cls-1{stroke-width:12.65px;}.cls-2{stroke:#000;stroke-width:0px;}.cls-3{stroke-width:7.42px;}.cls-4{fill:#fff;}</style></defs><title>Asset 2</title><g id="Layer_2" data-name="Layer 2"><g id="Layer_1-2" data-name="Layer 1"><path class="cls-1" d="M8.82,47.93s46.5,3.72,65.5-14.53C81.89,26.13,82,8.82,61.66,8.83h0c-23.83,0-41.33,50.65-41.33,50.65S-5,132.09,38.23,115.88c.16-.06.35,0,.51-.09C73.57,99,91.08,30.42,124.58,32.29h0c18.38,1.86,20.84,34.26,10,41-10.44,6.48-32-3.78-22.72-14.18,10.43-13.75,43.2-8.91,43.2-8.91"/><path class="cls-2" d="M15,47.93s46.5,3.72,65.5-14.53c7.57-7.27,7.66-24.58-12.66-24.57h0C44,8.84,26.51,59.47,26.51,59.47S1.18,132.09,44.42,115.88c.16-.06.35,0,.51-.09C79.76,99,97.27,30.42,130.77,32.29h0c18.38,1.86,20.84,34.26,10,41-10.44,6.48-32-3.78-22.72-14.18,10.43-13.75,43.2-8.91,43.2-8.91"/><line class="cls-3" x1="185.43" y1="112.14" x2="185.43" y2="14.92"/><path class="cls-4" d="M221.64,43l2.28,1.2a12.35,12.35,0,0,1-2.59,3.55,10.35,10.35,0,0,1-3.3,2.06,11.56,11.56,0,0,1-4.16.7,10,10,0,0,1-8-3.37,11.4,11.4,0,0,1-2.9-7.62,11.2,11.2,0,0,1,2.46-7.12,10,10,0,0,1,8.33-4,10.38,10.38,0,0,1,8.58,4.07,11.43,11.43,0,0,1,2.32,7.19H205.71a8.54,8.54,0,0,0,2.34,6A7.47,7.47,0,0,0,213.64,48a9,9,0,0,0,3.12-.56A8.11,8.11,0,0,0,219.34,46,12.58,12.58,0,0,0,221.64,43Zm0-5.66a9,9,0,0,0-1.57-3.46,7.36,7.36,0,0,0-2.74-2.08,8.3,8.3,0,0,0-3.57-.79,7.71,7.71,0,0,0-5.32,2A9,9,0,0,0,206,37.32Z"/><path class="cls-4" d="M228.94,28.94h2.87l7.06,15.31,7-15.31h2.9l-9.62,21h-.5Z"/><path class="cls-4" d="M275.05,28.94V50h-2.67V46.34a11.58,11.58,0,0,1-3.81,3.11,10.41,10.41,0,0,1-4.63,1,10.3,10.3,0,0,1-7.62-3.23,10.87,10.87,0,0,1-3.16-7.87,10.68,10.68,0,0,1,3.19-7.77A10.4,10.4,0,0,1,264,28.4a9.85,9.85,0,0,1,4.68,1.1,10.6,10.6,0,0,1,3.68,3.3V28.94ZM264.24,31a8.12,8.12,0,0,0-7.2,4.23,8.45,8.45,0,0,0-1.13,4.24A8.64,8.64,0,0,0,257,43.72a8.27,8.27,0,0,0,3.06,3.15A8,8,0,0,0,264.22,48a8.43,8.43,0,0,0,4.21-1.12,7.86,7.86,0,0,0,3.05-3,8.55,8.55,0,0,0,1.07-4.3,8.39,8.39,0,0,0-2.4-6.1A8,8,0,0,0,264.24,31Z"/><path class="cls-4" d="M224.89,69.42v21h-2.67V86.83a11.7,11.7,0,0,1-3.81,3.11,10.38,10.38,0,0,1-4.63,1,10.27,10.27,0,0,1-7.62-3.24A10.85,10.85,0,0,1,203,79.87a10.66,10.66,0,0,1,3.18-7.76,10.41,10.41,0,0,1,7.67-3.23A9.8,9.8,0,0,1,218.54,70a10.51,10.51,0,0,1,3.68,3.3V69.42Zm-10.81,2.07a8.15,8.15,0,0,0-7.2,4.23,8.49,8.49,0,0,0,0,8.48A8.3,8.3,0,0,0,210,87.36a8,8,0,0,0,4.11,1.13,8.51,8.51,0,0,0,4.21-1.12,8,8,0,0,0,3.06-3A8.68,8.68,0,0,0,222.4,80a8.39,8.39,0,0,0-2.4-6.1A8,8,0,0,0,214.08,71.49Z"/><path class="cls-4" d="M253.15,69.42v28.7h-2.66V86.83a11.73,11.73,0,0,1-3.82,3.11,10.65,10.65,0,0,1-12.24-2.2,10.86,10.86,0,0,1-3.16-7.87,10.63,10.63,0,0,1,3.19-7.76,10.39,10.39,0,0,1,7.67-3.23A9.86,9.86,0,0,1,246.81,70a10.6,10.6,0,0,1,3.68,3.3V69.42Zm-10.8,2.07a8.15,8.15,0,0,0-7.21,4.23,8.55,8.55,0,0,0,0,8.48,8.3,8.3,0,0,0,3.06,3.16,8,8,0,0,0,4.12,1.13,8.47,8.47,0,0,0,4.2-1.12,7.82,7.82,0,0,0,3.06-3,8.58,8.58,0,0,0,1.07-4.3,8.39,8.39,0,0,0-2.4-6.1A8,8,0,0,0,242.35,71.49Z"/><path class="cls-4" d="M261.42,60.77a2.15,2.15,0,0,1,1.58.66,2.19,2.19,0,0,1,.65,1.58,2.17,2.17,0,0,1-.65,1.57,2.22,2.22,0,0,1-3.14,0,2.17,2.17,0,0,1-.65-1.57,2.19,2.19,0,0,1,.65-1.58A2.13,2.13,0,0,1,261.42,60.77Zm-1.34,8.65h2.7v21h-2.7Z"/><path class="cls-4" d="M290.58,69.42v28.7h-2.66V86.83a11.73,11.73,0,0,1-3.82,3.11,10.37,10.37,0,0,1-4.62,1,10.24,10.24,0,0,1-7.62-3.24,10.82,10.82,0,0,1-3.16-7.87,10.63,10.63,0,0,1,3.19-7.76,10.39,10.39,0,0,1,7.67-3.23A9.86,9.86,0,0,1,284.24,70a10.6,10.6,0,0,1,3.68,3.3V69.42Zm-10.8,2.07a8.15,8.15,0,0,0-7.21,4.23,8.55,8.55,0,0,0,0,8.48,8.3,8.3,0,0,0,3.06,3.16,8,8,0,0,0,4.12,1.13,8.47,8.47,0,0,0,4.2-1.12,7.82,7.82,0,0,0,3.06-3,8.58,8.58,0,0,0,1.07-4.3,8.39,8.39,0,0,0-2.4-6.1A8,8,0,0,0,279.78,71.49Z"/><path class="cls-4" d="M318.85,69.42v21h-2.67V86.83a11.7,11.7,0,0,1-3.81,3.11,10.38,10.38,0,0,1-4.63,1,10.27,10.27,0,0,1-7.62-3.24A10.85,10.85,0,0,1,297,79.87a10.66,10.66,0,0,1,3.18-7.76,10.41,10.41,0,0,1,7.67-3.23A9.8,9.8,0,0,1,312.5,70a10.51,10.51,0,0,1,3.68,3.3V69.42ZM308,71.49a8.15,8.15,0,0,0-7.2,4.23A8.42,8.42,0,0,0,299.71,80a8.51,8.51,0,0,0,1.14,4.24,8.28,8.28,0,0,0,3,3.16A8,8,0,0,0,308,88.49a8.53,8.53,0,0,0,4.21-1.12,8,8,0,0,0,3.06-3,8.68,8.68,0,0,0,1.07-4.3,8.39,8.39,0,0,0-2.4-6.1A8,8,0,0,0,308,71.49Z"/><path class="cls-4" d="M326.2,61.31h2.7V73.19A11.53,11.53,0,0,1,332.51,70a8.77,8.77,0,0,1,4.27-1.08,7.42,7.42,0,0,1,4.18,1.2,7.13,7.13,0,0,1,2.7,3.22,17,17,0,0,1,.87,6.32V90.44h-2.71v-10a25.8,25.8,0,0,0-.29-4.84,4.94,4.94,0,0,0-5.29-4.19A6.65,6.65,0,0,0,331.85,73a7.54,7.54,0,0,0-2.56,4,27.37,27.37,0,0,0-.39,5.71v7.71h-2.7Z"/><path class="cls-4" d="M385.74,79.93l1.92,2a42.81,42.81,0,0,1-3.52,2.83c.78.72,1.79,1.69,3,2.93,1,1,1.82,1.88,2.53,2.71h-4L382,86.55a24.31,24.31,0,0,1-5.77,3.73,12.76,12.76,0,0,1-4.69.87,7.4,7.4,0,0,1-5.28-1.88,6.23,6.23,0,0,1-2-4.71,7.94,7.94,0,0,1,1.34-4.26,24.79,24.79,0,0,1,5.47-5.4,24.64,24.64,0,0,1-3-4.16,5.78,5.78,0,0,1-.67-2.55A4.43,4.43,0,0,1,369,64.67a7,7,0,0,1,4.72-1.62,7.27,7.27,0,0,1,3.24.72,5.24,5.24,0,0,1,2.24,1.92,4.62,4.62,0,0,1,.77,2.56,5.81,5.81,0,0,1-1,3,20.17,20.17,0,0,1-4,4.12l4.31,4.52,2.82,2.86A42.27,42.27,0,0,0,385.74,79.93Zm-12.81-2.88a22.8,22.8,0,0,0-4.74,4.34,5.33,5.33,0,0,0-1.13,3,3.78,3.78,0,0,0,1.38,2.87,4.83,4.83,0,0,0,3.37,1.25,7.56,7.56,0,0,0,3-.62A24,24,0,0,0,380,84.52l-4.48-4.61C374.75,79.1,373.88,78.14,372.93,77.05Zm.35-3.76a14.09,14.09,0,0,0,3.11-3.15,3.64,3.64,0,0,0,.74-2,2.08,2.08,0,0,0-1-1.7,4.15,4.15,0,0,0-2.55-.71,3.89,3.89,0,0,0-2.46.73,2.16,2.16,0,0,0-1,1.74,2.9,2.9,0,0,0,.39,1.45A22.89,22.89,0,0,0,373.28,73.29Z"/><path class="cls-4" d="M427.61,73.79l-2.14,1.33a9,9,0,0,0-7.58-3.69,8.8,8.8,0,0,0-6.38,2.47,8.08,8.08,0,0,0-2.54,6,8.5,8.5,0,0,0,1.17,4.32,8.28,8.28,0,0,0,3.2,3.15,9.4,9.4,0,0,0,4.57,1.12,9.24,9.24,0,0,0,7.56-3.69l2.14,1.41a10.16,10.16,0,0,1-4,3.52A13,13,0,0,1,417.78,91a11.45,11.45,0,0,1-8.27-3.17,10.33,10.33,0,0,1-3.28-7.7,10.93,10.93,0,0,1,1.54-5.67A10.78,10.78,0,0,1,412,70.35a12.29,12.29,0,0,1,6-1.47,13,13,0,0,1,4,.64,11.4,11.4,0,0,1,3.29,1.66A9.1,9.1,0,0,1,427.61,73.79Z"/><path class="cls-4" d="M455,69.42v21h-2.67V86.83a11.7,11.7,0,0,1-3.81,3.11,10.38,10.38,0,0,1-4.63,1,10.27,10.27,0,0,1-7.62-3.24,10.85,10.85,0,0,1-3.15-7.87,10.66,10.66,0,0,1,3.18-7.76A10.41,10.41,0,0,1,444,68.88,9.8,9.8,0,0,1,448.66,70a10.51,10.51,0,0,1,3.68,3.3V69.42ZM444.2,71.49a8.15,8.15,0,0,0-7.2,4.23A8.42,8.42,0,0,0,435.87,80,8.51,8.51,0,0,0,437,84.2a8.21,8.21,0,0,0,3.05,3.16,8,8,0,0,0,4.12,1.13,8.53,8.53,0,0,0,4.21-1.12,8,8,0,0,0,3.06-3,8.68,8.68,0,0,0,1.07-4.3,8.35,8.35,0,0,0-2.41-6.1A8,8,0,0,0,444.2,71.49Z"/><path class="cls-4" d="M464.71,61.62h2.71v7.8h4.28v2.34h-4.28V90.44h-2.71V71.76H461V69.42h3.69Z"/><path class="cls-4" d="M494.71,83.47,497,84.66a12.27,12.27,0,0,1-2.59,3.56,10.32,10.32,0,0,1-3.3,2,11.56,11.56,0,0,1-4.16.71,10,10,0,0,1-8-3.37A11.4,11.4,0,0,1,476,80a11.23,11.23,0,0,1,2.46-7.13,10,10,0,0,1,8.33-4A10.36,10.36,0,0,1,495.37,73a11.4,11.4,0,0,1,2.32,7.18H478.78a8.58,8.58,0,0,0,2.34,6,7.47,7.47,0,0,0,5.59,2.34,9,9,0,0,0,3.12-.56,8.31,8.31,0,0,0,2.58-1.48A12.58,12.58,0,0,0,494.71,83.47Zm0-5.66a9,9,0,0,0-1.57-3.46,7.49,7.49,0,0,0-2.74-2.09,8.45,8.45,0,0,0-3.57-.79,7.72,7.72,0,0,0-5.32,2,9,9,0,0,0-2.46,4.35Z"/><path class="cls-4" d="M503,69.42h2.76V72.5a9.9,9.9,0,0,1,2.61-2.72,5.16,5.16,0,0,1,2.86-.9,4.85,4.85,0,0,1,2.39.72l-1.41,2.28a3.64,3.64,0,0,0-1.42-.37,3.91,3.91,0,0,0-2.61,1.11,6.94,6.94,0,0,0-1.91,3.45,32.58,32.58,0,0,0-.51,7.26v7.11H503Z"/><path class="cls-4" d="M518.09,60.77a2.13,2.13,0,0,1,1.58.66,2.16,2.16,0,0,1,.66,1.58,2.24,2.24,0,0,1-2.24,2.22,2.09,2.09,0,0,1-1.55-.65,2.14,2.14,0,0,1-.66-1.57,2.16,2.16,0,0,1,.66-1.58A2.1,2.1,0,0,1,518.09,60.77Zm-1.34,8.65h2.71v21h-2.71Z"/><path class="cls-4" d="M526.34,69.42h2.71v3.77A11.16,11.16,0,0,1,532.64,70a8.75,8.75,0,0,1,4.28-1.08,7.45,7.45,0,0,1,4.19,1.2,7.15,7.15,0,0,1,2.69,3.23,17,17,0,0,1,.87,6.31V90.44H542v-10a23.63,23.63,0,0,0-.31-4.84,5.3,5.3,0,0,0-1.8-3.14,5.45,5.45,0,0,0-3.47-1.05A6.69,6.69,0,0,0,532,73a7.6,7.6,0,0,0-2.56,4,27.78,27.78,0,0,0-.38,5.71v7.71h-2.71Z"/><path class="cls-4" d="M569.84,69.42h2.71V86.17a19.94,19.94,0,0,1-.77,6.47,8.42,8.42,0,0,1-3.69,4.46,12.16,12.16,0,0,1-6.32,1.56,14.5,14.5,0,0,1-4.86-.76,9.85,9.85,0,0,1-3.5-2.05,12.31,12.31,0,0,1-2.49-3.77h2.93a7.74,7.74,0,0,0,3.1,3.09,9.94,9.94,0,0,0,4.7,1,9.68,9.68,0,0,0,4.67-1A6.25,6.25,0,0,0,569,92.55a11.51,11.51,0,0,0,.81-5V86.44a10,10,0,0,1-3.73,3A11,11,0,0,1,556,89,10.25,10.25,0,0,1,552,85.13a10.93,10.93,0,0,1,9.47-16.25,10.09,10.09,0,0,1,4.4,1,12,12,0,0,1,3.93,3.22Zm-8,2.07a8.55,8.55,0,0,0-4.27,1.11,8.13,8.13,0,0,0-3.09,3.07,8.38,8.38,0,0,0-1.12,4.24,7.63,7.63,0,0,0,2.32,5.72,9.13,9.13,0,0,0,12,0A7.93,7.93,0,0,0,570,79.76a8.57,8.57,0,0,0-1-4.24,7.63,7.63,0,0,0-3-3A8.2,8.2,0,0,0,561.87,71.49Z"/></g></g></svg>